 <svg  version="1.0" xmlns="http://www.w3.org/2000/svg"  width="300.000000pt" height="300.000000pt" viewBox="0 0 300.000000 300.000000"  preserveAspectRatio="xMidYMid meet">  <g transform="translate(0.000000,300.000000) scale(0.100000,-0.100000)" fill="#e87a30" stroke="none"> <path d="M699 1533 c-42 -4 -47 -7 -52 -31 -3 -15 -1 -32 5 -39 5 -7 8 -49 7 -95 l-4 -83 33 -3 32 -3 0 48 c0 46 1 49 27 48 20 0 28 6 34 28 7 26 6 27 -27 27 -27 0 -34 4 -34 20 0 15 7 20 29 20 33 0 35 2 45 43 7 30 14 28 -95 20z m28 -45 c-30 -22 -35 -49 -11 -72 8 -9 11 -16 5 -16 -5 0 -13 -9 -16 -20 -13 -40 -24 -18 -24 47 0 37 2 69 4 72 2 4 18 7 36 7 l33 1 -27 -19z"/> <path d="M1440 1531 c-40 -5 -45 -9 -50 -35 -6 -35 -30 -48 -30 -16 0 19 -4 21 -27 15 -34 -8 -29 -2 -41 -47 -6 -23 -7 -38 -1 -38 5 0 9 -29 9 -65 l0 -65 30 0 c30 0 30 0 30 58 0 54 16 112 32 112 4 0 6 -42 5 -92 l-2 -93 40 0 c40 0 40 0 43 43 3 33 7 42 22 42 22 0 25 4 35 48 6 31 5 32 -24 32 -17 0 -31 5 -31 10 0 6 11 10 24 10 29 0 32 4 41 53 7 37 7 37 -26 35 -19 0 -54 -4 -79 -7z m94 -10 c4 -5 2 -21 -4 -35 -7 -20 -16 -26 -40 -26 -23 0 -30 -4 -30 -20 0 -16 7 -20 30 -20 25 0 30 -4 30 -25 0 -21 -5 -25 -30 -25 -29 0 -30 -2 -30 -45 0 -41 -2 -45 -25 -45 -25 0 -25 1 -25 90 0 50 -4 90 -9 90 -6 0 -6 11 0 29 9 27 16 30 57 34 26 2 52 4 59 5 6 1 14 -2 17 -7z m-184 -80 c0 -10 -7 -24 -15 -31 -13 -11 -15 -8 -15 19 0 21 5 31 15 31 8 0 15 -8 15 -19z"/> <path d="M1569 1513 c-13 -33 -14 -232 -1 -245 5 -5 22 -8 38 -6 23 2 30 9 35 33 l7 30 1 -28 c1 -31 19 -42 56 -33 23 6 25 12 27 64 l1 57 6 -60 c6 -57 8 -60 34 -63 23 -3 29 2 38 26 l10 29 27 -26 c23 -22 36 -26 82 -26 54 0 55 1 67 35 7 19 12 29 12 22 2 -29 49 -62 90 -62 22 0 43 5 46 10 4 6 10 36 13 68 l7 57 5 -65 5 -65 35 0 35 0 3 63 c2 46 7 62 17 62 8 0 15 6 15 13 0 6 3 22 6 35 6 21 4 22 -55 22 -58 0 -61 -1 -61 -25 0 -30 -16 -33 -25 -4 -8 25 -48 41 -82 33 -30 -8 -62 -57 -65 -99 -1 -16 -4 15 -7 70 l-6 100 -33 3 c-33 3 -35 1 -46 -50 -4 -18 -13 -28 -25 -28 -27 0 -54 -36 -62 -83 l-6 -42 -2 43 c-2 73 -11 82 -91 82 -63 0 -70 -2 -70 -19 0 -11 -5 -23 -12 -27 -10 -7 -8 51 4 106 2 10 -7 16 -30 18 -27 3 -34 -1 -43 -25z m61 -1 c0 -19 -27 -43 -42 -37 -25 10 -11 45 18 45 13 0 24 -4 24 -8z m352 -94 c4 -128 2 -138 -28 -138 -22 0 -24 4 -24 55 0 42 -4 57 -16 62 -30 11 -45 -35 -19 -61 22 -21 19 -56 -4 -56 -28 0 -61 47 -61 87 0 46 40 88 76 79 24 -6 25 -5 19 23 -8 38 0 51 30 51 23 0 24 -2 27 -102z m-360 -28 c1 -33 2 -70 2 -82 1 -18 -5 -24 -26 -26 -26 -3 -26 -2 -30 65 -5 89 -1 103 28 103 22 0 24 -4 26 -60z m88 -25 c0 -83 -1 -85 -24 -85 -23 0 -25 4 -28 63 -5 92 -1 107 28 107 24 0 24 -2 24 -85z m69 76 c15 -10 31 -112 23 -143 -3 -11 -14 -18 -28 -18 -22 0 -24 4 -24 50 0 28 -5 59 -12 69 -22 35 6 64 41 42z m351 -13 c11 -12 20 -34 20 -50 0 -27 -2 -28 -46 -28 -40 0 -45 -2 -34 -15 7 -8 25 -15 41 -15 22 0 29 -5 29 -19 0 -23 -25 -30 -68 -19 -23 6 -37 19 -49 42 -18 39 -13 72 17 104 26 28 63 28 90 0z m105 12 c5 -8 11 -7 21 1 11 9 14 7 14 -9 0 -12 -7 -25 -15 -29 -9 -5 -15 -28 -17 -63 -3 -48 -6 -55 -25 -58 -22 -3 -23 0 -23 56 0 33 -4 62 -9 64 -5 2 -5 13 0 26 9 23 43 30 54 12z"/> <path d="M2072 1408 c-19 -19 -14 -28 13 -28 27 0 32 12 12 29 -10 8 -17 7 -25 -1z"/> <path d="M835 1438 c-23 -27 -26 -39 -22 -72 8 -55 46 -88 96 -84 31 3 36 7 39 31 3 25 1 27 -22 21 -24 -6 -56 8 -56 25 0 3 20 5 45 3 40 -4 45 -2 45 17 0 30 -26 77 -45 85 -33 12 -54 5 -80 -26z m75 -39 c0 -5 -9 -9 -20 -9 -19 0 -27 20 -13 33 7 8 33 -11 33 -24z"/> <path d="M1003 1444 c-45 -45 -23 -147 32 -156 14 -2 21 3 23 20 2 12 7 22 12 22 5 0 15 3 24 6 9 3 16 1 16 -5 0 -6 -6 -11 -14 -11 -15 0 -28 -24 -19 -34 11 -11 51 -6 56 7 2 6 2 49 -1 94 l-5 82 -50 -1 c-39 -1 -57 -7 -74 -24z m67 -53 c0 -11 3 -26 6 -35 8 -22 -22 -21 -34 0 -12 22 -4 54 14 54 8 0 14 -9 14 -19z"/> <path d="M1182 1454 c-34 -24 -29 -67 10 -92 24 -16 35 -18 40 -9 5 8 8 7 8 -5 0 -9 -4 -20 -10 -23 -5 -3 -10 -1 -10 5 0 6 -4 8 -10 5 -5 -3 -18 -1 -29 4 -16 9 -19 7 -23 -19 -5 -31 6 -40 46 -40 61 0 90 73 42 105 -13 9 -31 13 -42 9 -16 -5 -15 -4 3 10 12 9 28 13 36 10 18 -7 31 37 14 48 -19 12 -51 9 -75 -8z"/> </g> </svg> 